<svg id="Layer_1" data-name="Layer 1" xmlns="http://www.w3.org/2000/svg" xmlns:xlink="http://www.w3.org/1999/xlink" viewBox="0 0 298.06 86"><defs><style>.cls-1,.cls-2,.cls-9{fill:#fff;}.cls-1{stroke:#fff;stroke-miterlimit:10;stroke-width:0.2px;}.cls-3{fill:url(#linear-gradient);}.cls-4{fill:url(#linear-gradient-2);}.cls-5{fill:url(#linear-gradient-3);}.cls-6{fill:url(#linear-gradient-4);}.cls-7{opacity:0.2;}.cls-7,.cls-8,.cls-9{isolation:isolate;}.cls-8{opacity:0.12;}.cls-9{opacity:0.25;}</style><linearGradient id="linear-gradient" x1="49.69" y1="16.08" x2="14.6" y2="-19.01" gradientTransform="matrix(1, 0, 0, -1, 0, 35.48)" gradientUnits="userSpaceOnUse"><stop offset="0" stop-color="#00a0ff"/><stop offset="0.01" stop-color="#00a1ff"/><stop offset="0.26" stop-color="#00beff"/><stop offset="0.51" stop-color="#00d2ff"/><stop offset="0.76" stop-color="#00dfff"/><stop offset="1" stop-color="#00e3ff"/></linearGradient><linearGradient id="linear-gradient-2" x1="74.85" y1="-7.53" x2="24.26" y2="-7.53" gradientTransform="matrix(1, 0, 0, -1, 0, 35.48)" gradientUnits="userSpaceOnUse"><stop offset="0" stop-color="#ffe000"/><stop offset="0.41" stop-color="#ffbd00"/><stop offset="0.78" stop-color="orange"/><stop offset="1" stop-color="#ff9c00"/></linearGradient><linearGradient id="linear-gradient-3" x1="56.02" y1="-12.32" x2="8.44" y2="-59.9" gradientTransform="matrix(1, 0, 0, -1, 0, 35.48)" gradientUnits="userSpaceOnUse"><stop offset="0" stop-color="#ff3a44"/><stop offset="1" stop-color="#c31162"/></linearGradient><linearGradient id="linear-gradient-4" x1="19.37" y1="33.92" x2="40.62" y2="12.67" gradientTransform="matrix(1, 0, 0, -1, 0, 35.48)" gradientUnits="userSpaceOnUse"><stop offset="0" stop-color="#32a071"/><stop offset="0.07" stop-color="#2da771"/><stop offset="0.48" stop-color="#15cf74"/><stop offset="0.8" stop-color="#06e775"/><stop offset="1" stop-color="#00f076"/></linearGradient></defs><title>1</title><g id="_Group_" data-name="&lt;Group&gt;"><g id="_Group_2" data-name="&lt;Group&gt;"><path d="M283.21,84.81H14.85A10.63,10.63,0,0,1,4.11,74.36V11.64A10.63,10.63,0,0,1,14.85,1.19H283.21a10.63,10.63,0,0,1,10.73,10.45V74.36A10.63,10.63,0,0,1,283.21,84.81Z"/></g><g id="_Group_3" data-name="&lt;Group&gt;"><path id="_Compound_Path_" data-name="&lt;Compound Path&gt;" class="cls-1" d="M103.25,22.6a5.66,5.66,0,0,1-1.56,4.19,6.08,6.08,0,0,1-4.61,1.86,6.46,6.46,0,0,1-6.52-6.55,6.46,6.46,0,0,1,6.52-6.55,6.47,6.47,0,0,1,2.57.53,5.17,5.17,0,0,1,2,1.4l-1.1,1.1a4.24,4.24,0,0,0-3.43-1.49,4.85,4.85,0,0,0-4.87,5,4.93,4.93,0,0,0,8.37,3.61,4,4,0,0,0,1.05-2.54H97.08V21.66h6.08A5.32,5.32,0,0,1,103.25,22.6Z"/><path id="_Compound_Path_2" data-name="&lt;Compound Path&gt;" class="cls-1" d="M112.89,17.36h-5.71v4h5.15v1.51h-5.15v4h5.71v1.54h-7.32V15.82h7.32Z"/><path id="_Compound_Path_3" data-name="&lt;Compound Path&gt;" class="cls-1" d="M119.68,28.37h-1.61v-11h-3.5V15.82h8.62v1.54h-3.5Z"/><path id="_Compound_Path_4" data-name="&lt;Compound Path&gt;" class="cls-1" d="M129.42,28.37V15.82H131V28.37Z"/><path id="_Compound_Path_5" data-name="&lt;Compound Path&gt;" class="cls-1" d="M138.18,28.37h-1.61v-11h-3.5V15.82h8.62v1.54h-3.5Z"/><path id="_Compound_Path_6" data-name="&lt;Compound Path&gt;" class="cls-1" d="M158,26.74a6.51,6.51,0,0,1-9.2,0A6.41,6.41,0,0,1,147,22.09a6.41,6.41,0,0,1,1.85-4.65,6.49,6.49,0,0,1,9.19,0,6.41,6.41,0,0,1,1.86,4.64A6.42,6.42,0,0,1,158,26.74Zm-8-1.05a4.82,4.82,0,0,0,6.82,0,4.91,4.91,0,0,0,1.39-3.6,4.91,4.91,0,0,0-1.39-3.6,4.82,4.82,0,0,0-6.82,0,4.92,4.92,0,0,0-1.39,3.6A4.92,4.92,0,0,0,150,25.69Z"/><path id="_Compound_Path_7" data-name="&lt;Compound Path&gt;" class="cls-1" d="M162.11,28.37V15.82h2l6.1,9.76h.07l-.07-2.42V15.82h1.61V28.37H170.1l-6.38-10.23h-.07l.07,2.42v7.81Z"/></g><path id="_Compound_Path_8" data-name="&lt;Compound Path&gt;" class="cls-2" d="M146.56,46.66a8.89,8.89,0,1,0,8.93,8.89A8.76,8.76,0,0,0,146.56,46.66Zm0,14.28a5.4,5.4,0,1,1,5-5.39A5.14,5.14,0,0,1,146.56,60.94ZM127.09,46.66A8.89,8.89,0,1,0,136,55.55,8.76,8.76,0,0,0,127.09,46.66Zm0,14.28a5.4,5.4,0,1,1,5-5.39A5.14,5.14,0,0,1,127.09,60.94ZM103.93,49.39v3.77h9a7.87,7.87,0,0,1-2.05,4.75,9.24,9.24,0,0,1-7,2.76,10,10,0,0,1,0-20.07,9.62,9.62,0,0,1,6.8,2.69l2.66-2.66a13.16,13.16,0,0,0-9.46-3.81,13.81,13.81,0,1,0,0,27.62,12.62,12.62,0,0,0,9.63-3.87,12.46,12.46,0,0,0,3.27-8.82,12.28,12.28,0,0,0-.2-2.36Zm94.72,2.93c-.74-2-3-5.66-7.61-5.66s-8.39,3.6-8.39,8.89a8.7,8.7,0,0,0,8.82,8.89,8.84,8.84,0,0,0,7.41-3.94l-3-2a5.08,5.08,0,0,1-4.38,2.46,4.52,4.52,0,0,1-4.31-2.69l11.89-4.92Zm-12.13,3a4.88,4.88,0,0,1,4.65-5.19,3.44,3.44,0,0,1,3.3,1.89Zm-9.67,8.62h3.91V37.77h-3.91Zm-6.4-15.26h-.13a6.16,6.16,0,0,0-4.68-2,8.9,8.9,0,0,0,0,17.78,6.06,6.06,0,0,0,4.68-2h.13V63.7c0,3.4-1.82,5.22-4.75,5.22a4.92,4.92,0,0,1-4.48-3.17l-3.4,1.41a8.47,8.47,0,0,0,7.88,5.25c4.58,0,8.45-2.69,8.45-9.26v-16h-3.71ZM166,60.94a5.41,5.41,0,0,1,0-10.78c2.66,0,4.75,2.29,4.75,5.42S168.64,60.94,166,60.94Zm51-23.17h-9.35V63.91h3.9V54H217c4.32,0,8.57-3.13,8.57-8.12S221.28,37.77,217,37.77Zm.1,12.6h-5.55v-9h5.55a4.48,4.48,0,1,1,0,9Zm24.11-3.75c-2.82,0-5.75,1.24-7,4l3.46,1.45a3.7,3.7,0,0,1,3.56-1.92c2,0,4.07,1.21,4.1,3.36v.27a8.63,8.63,0,0,0-4.07-1c-3.73,0-7.53,2.05-7.53,5.88,0,3.5,3.06,5.75,6.49,5.75a5.5,5.5,0,0,0,5-2.56h.13v2h3.77v-10C249.1,49.2,245.63,46.61,241.16,46.61Zm-.47,14.32c-1.28,0-3.06-.64-3.06-2.22,0-2,2.22-2.79,4.14-2.79a7,7,0,0,1,3.56.87A4.73,4.73,0,0,1,240.69,60.94Zm22.12-13.75-4.47,11.33h-.13l-4.64-11.33h-4.2l7,15.84-4,8.81h4.07l10.73-24.65ZM227.68,63.91h3.9V37.77h-3.9Z"/><g id="_Group_4" data-name="&lt;Group&gt;"><path id="_Path_" data-name="&lt;Path&gt;" class="cls-3" d="M25.93,16.95a4.19,4.19,0,0,0-1,2.94V66.12a4.18,4.18,0,0,0,1,2.94l.15.15L52,43.31V42.7l-25.9-25.9Z"/><path id="_Path_2" data-name="&lt;Path&gt;" class="cls-4" d="M60.62,51.94,52,43.31V42.7l8.64-8.64.19.11L71,40C74,41.64,74,44.36,71,46L60.82,51.83Z"/><path id="_Path_3" data-name="&lt;Path&gt;" class="cls-5" d="M60.82,51.83,52,43,25.93,69.06c1,1,2.55,1.15,4.34.13L60.82,51.83"/><path id="_Path_4" data-name="&lt;Path&gt;" class="cls-6" d="M60.82,34.17,30.28,16.82c-1.79-1-3.38-.89-4.34.13L52,43Z"/><g id="_Group_5" data-name="&lt;Group&gt;"><path id="_Path_5" data-name="&lt;Path&gt;" class="cls-7" d="M60.62,51.64,30.28,68.88c-1.7,1-3.22.9-4.19,0h0l-.16.16h0l.15.15h0c1,.88,2.49.94,4.19,0L60.82,51.83Z"/><path id="_Path_6" data-name="&lt;Path&gt;" class="cls-8" d="M25.93,68.75a4.19,4.19,0,0,1-1-2.94v.31a4.19,4.19,0,0,0,1,2.94l.16-.16Z"/></g><path id="_Path_7" data-name="&lt;Path&gt;" class="cls-8" d="M71,45.72,60.62,51.64l.19.19L71,46a3.67,3.67,0,0,0,2.19-3h0A3.89,3.89,0,0,1,71,45.72Z"/><path id="_Path_8" data-name="&lt;Path&gt;" class="cls-9" d="M30.28,17.12,71,40.29A3.89,3.89,0,0,1,73.24,43h0A3.67,3.67,0,0,0,71,40L30.28,16.82C27.35,15.16,25,16.54,25,19.88v.31C25,16.84,27.35,15.46,30.28,17.12Z"/></g></g></svg>